<?xml version="1.0" encoding="utf-8"?>
<!-- Generator: Adobe Illustrator 16.0.4, SVG Export Plug-In . SVG Version: 6.00 Build 0)  -->
<!DOCTYPE svg PUBLIC "-//W3C//DTD SVG 1.1//EN" "http://www.w3.org/Graphics/SVG/1.1/DTD/svg11.dtd">
<svg version="1.1" id="Layer_1" xmlns="http://www.w3.org/2000/svg" xmlns:xlink="http://www.w3.org/1999/xlink" x="0px" y="0px"
	 width="32.052px" height="27.051px" viewBox="0 0 32.052 27.051" enable-background="new 0 0 32.052 27.051" xml:space="preserve">
<path opacity="0.2" fill="#38404D" d="M24.992,27.051c2.212,0,4.005-1.793,4.005-4.006s-1.793-4.006-4.005-4.006
	c-1.718,0-3.243,1.106-3.815,2.746l-0.42-0.037c-1.373-0.152-2.479-0.306-3.51-1.031c-0.839-0.571-1.258-1.562-1.373-3.318
	c-0.076-0.953-0.115-1.983-0.152-2.938c-0.038-0.954-0.076-2.021-0.153-3.052c-0.114-1.793-0.496-4.005-2.212-5.379
	c-0.496-0.382-1.411-0.725-2.747-1.068h13.543c0.534,2.137,2.709,3.472,4.845,2.938c2.137-0.534,3.472-2.708,2.938-4.845
	s-2.708-3.472-4.845-2.938c-1.45,0.343-2.594,1.487-2.938,2.938H7.901C7.366,0.919,5.192-0.417,3.055,0.118
	C0.919,0.652-0.416,2.826,0.118,4.962C0.653,7.099,2.827,8.434,4.963,7.9c0.991-0.229,1.869-0.839,2.402-1.717
	C7.481,6.222,7.633,6.222,7.748,6.26c2.595,0.534,4.083,0.954,4.464,1.22c1.106,0.916,1.373,2.556,1.488,4.044
	c0.075,0.992,0.114,2.022,0.152,3.014c0.037,0.992,0.076,1.984,0.152,2.976c0.114,1.603,0.457,3.548,2.175,4.769
	c1.449,1.031,2.937,1.184,4.387,1.373c0.152,0,0.306,0.039,0.496,0.077C21.367,25.601,23.045,27.051,24.992,27.051z M28.043,1.873
	c1.145,0,2.098,0.954,2.098,2.098c0,1.144-0.953,2.098-2.098,2.098s-2.099-0.954-2.099-2.098
	C25.945,2.826,26.899,1.873,28.043,1.873z M1.911,3.971c0-1.145,0.954-2.098,2.099-2.098s2.099,0.916,2.099,2.098
	S5.154,6.069,4.009,6.069S1.911,5.115,1.911,3.971z M22.893,23.045c0-1.145,0.953-2.099,2.099-2.099
	c1.144,0,2.098,0.915,2.098,2.099c0,1.182-0.954,2.098-2.098,2.098C23.846,25.143,22.893,24.19,22.893,23.045z"/>
</svg>
