<?xml version="1.0" encoding="utf-8"?>
<!-- Generator: Adobe Illustrator 16.0.4, SVG Export Plug-In . SVG Version: 6.00 Build 0)  -->
<!DOCTYPE svg PUBLIC "-//W3C//DTD SVG 1.1//EN" "http://www.w3.org/Graphics/SVG/1.1/DTD/svg11.dtd">
<svg version="1.1" id="Layer_1" xmlns="http://www.w3.org/2000/svg" xmlns:xlink="http://www.w3.org/1999/xlink" x="0px" y="0px"
	 width="28.641px" height="28.047px" viewBox="0 0 28.641 28.047" enable-background="new 0 0 28.641 28.047" xml:space="preserve">
<g>
	<path fill="#38404D" d="M26.731,28.047l-7.638-7.64c-2.023,1.725-4.644,2.766-7.504,2.766C5.199,23.173,0,17.976,0,11.586
		C0,5.198,5.199,0,11.589,0c6.388,0,11.584,5.198,11.584,11.586c0,2.557-0.832,4.923-2.239,6.842l7.707,7.709L26.731,28.047z
		 M11.589,2.702c-4.9,0-8.887,3.985-8.887,8.884c0,4.899,3.987,8.886,8.887,8.886c4.897,0,8.883-3.986,8.883-8.886
		C20.472,6.688,16.487,2.702,11.589,2.702z"/>
</g>
</svg>
