<?xml version="1.0" encoding="utf-8"?>
<!-- Generator: Adobe Illustrator 16.0.4, SVG Export Plug-In . SVG Version: 6.00 Build 0)  -->
<!DOCTYPE svg PUBLIC "-//W3C//DTD SVG 1.1//EN" "http://www.w3.org/Graphics/SVG/1.1/DTD/svg11.dtd">
<svg version="1.1" id="Layer_1" xmlns="http://www.w3.org/2000/svg" xmlns:xlink="http://www.w3.org/1999/xlink" x="0px" y="0px"
	 width="35.484px" height="14.56px" viewBox="0 0 35.484 14.56" enable-background="new 0 0 35.484 14.56" xml:space="preserve">
<g opacity="0.2">
	<g>
		<g>
			<path fill="#38404D" d="M8.766,0c-4.014,0-7.28,3.265-7.28,7.279c0,4.015,3.267,7.28,7.28,7.28c4.015,0,7.279-3.266,7.279-7.28
				C16.045,3.265,12.78,0,8.766,0z M8.766,12.479c-2.866,0-5.199-2.332-5.199-5.199c0-2.867,2.333-5.199,5.199-5.199
				s5.198,2.332,5.198,5.199C13.964,10.146,11.632,12.479,8.766,12.479z"/>
		</g>
		<g>
			<path fill="#38404D" d="M17.741,5.203c0.693,0,1.286,0.189,1.76,0.562c0.033,0.025,0.064,0.051,0.094,0.076l1.88-1.046
				c-0.161-0.197-0.385-0.428-0.688-0.666c-0.851-0.668-1.874-1.007-3.046-1.007c-1.17,0-2.194,0.338-3.045,1.006
				c-0.302,0.238-0.525,0.47-0.687,0.667l1.879,1.046c0.03-0.026,0.062-0.052,0.094-0.077C16.456,5.392,17.049,5.203,17.741,5.203z"
				/>
		</g>
		<g>
			<path fill="#38404D" d="M0,6.76h2.153V4.68H0V6.76z"/>
		</g>
	</g>
	<g>
		<g>
			<path fill="#38404D" d="M19.439,7.279c0,4.015,3.265,7.28,7.279,7.28c4.014,0,7.28-3.266,7.28-7.28
				c0-4.014-3.267-7.279-7.28-7.279C22.704,0,19.439,3.265,19.439,7.279z M21.521,7.279c0-2.867,2.332-5.199,5.198-5.199
				s5.199,2.332,5.199,5.199c0,2.867-2.333,5.199-5.199,5.199S21.521,10.146,21.521,7.279z"/>
		</g>
		<g>
			<path fill="#38404D" d="M35.484,4.68h-2.153v2.08h2.153V4.68z"/>
		</g>
	</g>
</g>
</svg>
